<svg id="Layer_1" data-name="Layer 1" xmlns="http://www.w3.org/2000/svg" viewBox="0 0 185.76 185.76"><defs><style>.cls-1{fill:#e8685d;}.cls-2{fill:#ce4b4a;}.cls-3{fill:#bb4443;}.cls-4{fill:#fabe68;}.cls-5{fill:#fdd08e;}.cls-6{font-size:18px;fill:#f9f8f7;font-family:AutourOne-Regular, Autour One;}.cls-7{font-size:12px;fill:#f7a5a6;font-family:Norwester-Regular, Norwester;}.cls-8{letter-spacing:-0.01em;}.cls-9{letter-spacing:-0.03em;}.cls-10{fill:#f68b66;}.cls-11{fill:#f47c55;}.cls-12{fill:#764730;}.cls-13{fill:#af6937;}.cls-14{fill:#ee9e8f;}.cls-15{fill:#c7de7e;}</style></defs><path class="cls-1" d="M422.5,335.21c10.94,13.35,8.23,26.06-6.74,33.36,5.19,15.83-1.88,26.24-18.37,27.25-1,16.48-11.42,23.56-27.24,18.37-7.31,15-20,17.67-33.36,6.73-13.35,10.94-26.06,8.24-33.36-6.73-15.83,5.19-26.24-1.89-27.25-18.37-16.48-1-23.56-11.42-18.37-27.25-15-7.3-17.67-20-6.73-33.36-10.94-13.34-8.24-26.06,6.73-33.36-5.19-15.82,1.89-26.23,18.37-27.24,1-16.49,11.42-23.56,27.25-18.37,7.3-15,20-17.68,33.36-6.74,13.34-10.94,26-8.23,33.36,6.74,15.82-5.19,26.23,1.88,27.24,18.37,16.49,1,23.56,11.42,18.37,27.24C430.73,309.15,433.44,321.87,422.5,335.21Z" transform="translate(-243.91 -242.33)"/><path class="cls-2" d="M352.54,428.09c-5,0-10.39-2.21-15.75-6.52-6.63,5.33-13.28,7.46-19.25,6.15-5.81-1.27-10.77-5.73-14.37-12.92-7.75,2.45-14.39,2-19.23-1.27s-7.65-9.22-8.23-17.24c-8-.58-14-3.42-17.24-8.23s-3.72-11.48-1.27-19.23c-7.19-3.6-11.65-8.56-12.92-14.37-1.3-6,.82-12.62,6.15-19.25-5.33-6.62-7.45-13.27-6.15-19.25,1.27-5.8,5.73-10.76,12.92-14.37-2.45-7.74-2-14.38,1.27-19.22s9.22-7.66,17.24-8.23c.58-8,3.42-14,8.23-17.24s11.48-3.72,19.23-1.27c3.6-7.19,8.56-11.66,14.37-12.92,6-1.31,12.62.82,19.25,6.15,6.62-5.33,13.27-7.46,19.25-6.15,5.8,1.26,10.76,5.73,14.37,12.92,7.74-2.45,14.38-2,19.22,1.27s7.66,9.22,8.23,17.24c8,.57,14,3.42,17.24,8.23s3.72,11.48,1.27,19.22c7.19,3.61,11.66,8.57,12.92,14.37,1.31,6-.82,12.63-6.15,19.25,5.33,6.63,7.46,13.28,6.15,19.25-1.26,5.81-5.73,10.77-12.92,14.37,2.45,7.75,2,14.39-1.27,19.23s-9.22,7.65-17.24,8.23c-.57,8-3.42,14-8.23,17.24s-11.48,3.72-19.22,1.27c-3.61,7.19-8.57,11.65-14.37,12.92A16.31,16.31,0,0,1,352.54,428.09Zm-15.75-7.81.31.26c6.49,5.31,13,7.46,18.72,6.2s10.4-5.64,13.88-12.77l.19-.39.41.13c7.62,2.5,14.11,2.15,18.77-1s7.34-9,7.82-16.91l0-.44.44,0c7.92-.48,13.77-3.19,16.91-7.82s3.52-11.15,1-18.77l-.14-.41.39-.19c7.14-3.48,11.55-8.28,12.78-13.88,1.25-5.76-.89-12.23-6.21-18.72l-.26-.32.26-.31c5.32-6.49,7.46-13,6.21-18.72-1.23-5.6-5.64-10.4-12.78-13.88l-.39-.19.14-.42c2.5-7.61,2.15-14.1-1-18.76s-9-7.34-16.91-7.82l-.44,0,0-.44c-.48-7.92-3.19-13.77-7.82-16.91s-11.15-3.51-18.77-1l-.41.14-.19-.39c-3.48-7.14-8.28-11.55-13.88-12.78-5.76-1.25-12.23.89-18.72,6.21l-.31.26-.32-.26c-6.49-5.32-13-7.46-18.72-6.21-5.6,1.23-10.39,5.64-13.88,12.78l-.19.39-.41-.14c-7.62-2.49-14.11-2.15-18.77,1s-7.34,9-7.82,16.91l0,.44-.44,0c-7.92.48-13.76,3.19-16.91,7.82s-3.51,11.15-1,18.76l.13.42-.39.19c-7.13,3.48-11.55,8.28-12.77,13.88-1.26,5.76.89,12.23,6.2,18.72l.26.31-.26.32c-5.31,6.49-7.46,13-6.2,18.72,1.22,5.6,5.64,10.4,12.77,13.88l.39.19-.13.41c-2.5,7.62-2.15,14.11,1,18.77s9,7.34,16.91,7.82l.44,0,0,.44c.48,7.92,3.19,13.76,7.82,16.91s11.15,3.51,18.77,1l.41-.13.19.39c3.49,7.13,8.28,11.55,13.88,12.77,5.76,1.26,12.23-.89,18.72-6.2Z" transform="translate(-243.91 -242.33)"/><path class="cls-2" d="M413.38,335.21c9.78,11.93,7.36,23.29-6,29.82,4.64,14.14-1.68,23.44-16.41,24.34-.9,14.73-10.21,21.06-24.35,16.42-6.53,13.38-17.89,15.79-29.81,6-11.93,9.77-23.29,7.36-29.82-6-14.14,4.64-23.44-1.69-24.34-16.42-14.73-.9-21.06-10.2-16.42-24.34-13.38-6.53-15.79-17.89-6-29.82-9.77-11.92-7.36-23.28,6-29.81-4.64-14.14,1.69-23.45,16.42-24.35.9-14.73,10.2-21.05,24.34-16.41,6.53-13.38,17.89-15.8,29.82-6,11.92-9.78,23.28-7.36,29.81,6,14.14-4.64,23.45,1.68,24.35,16.41,14.73.9,21.05,10.21,16.41,24.35C420.74,311.93,423.16,323.29,413.38,335.21Z" transform="translate(-243.91 -242.33)"/><path class="cls-3" d="M266.42,356.66c2.19.53,2.84,1.86,6.06,1.86,4,0,4-2.07,8-2.07s4,2.07,8,2.07,4-2.07,8-2.07,4,2.07,8,2.07,4-2.07,8-2.07,4,2.07,8.05,2.07,4-2.07,8-2.07,4,2.07,8,2.07,4-2.07,8.05-2.07,4,2.07,8,2.07,4-2.07,8-2.07,4,2.07,8,2.07,4-2.07,8-2.07,4,2.07,8,2.07,4-2.07,8-2.07,4,2.07,8,2.07c3.19,0,3.85-1.3,6-1.84,5.18-5.82,4.76-13.5-1.78-21.47,5.91-7.21,6.84-14.18,3.14-19.75H265.08c-3.7,5.57-2.78,12.54,3.13,19.75C261.68,343.18,261.26,350.85,266.42,356.66Z" transform="translate(-243.91 -242.33)"/><path class="cls-4" d="M400,308.52c4.16-12.66-1.51-21-14.69-21.8-.81-13.18-9.14-18.85-21.8-14.69-5.84-12-16-14.15-26.69-5.39-10.68-8.76-20.85-6.59-26.7,5.39-12.65-4.16-21,1.51-21.79,14.69-13.19.81-18.85,9.14-14.7,21.8-12,5.84-14.14,16-5.39,26.69a29.93,29.93,0,0,0-3,4.33H408.33a29.15,29.15,0,0,0-3-4.33C414.12,324.54,412,314.36,400,308.52Z" transform="translate(-243.91 -242.33)"/><path class="cls-5" d="M387.87,339.54h3.35V287.76a23.5,23.5,0,0,0-3.35-.76Z" transform="translate(-243.91 -242.33)"/><path class="cls-5" d="M372.79,339.54h3.36v-68a14.21,14.21,0,0,0-3.36-.74Z" transform="translate(-243.91 -242.33)"/><path class="cls-5" d="M267.28,339.54h3.35V310.19a21.79,21.79,0,0,0-3.35,2.63V334c.3.4.6.79.93,1.19-.33.4-.63.8-.93,1.2Z" transform="translate(-243.91 -242.33)"/><path class="cls-5" d="M357.72,264.37v75.17h3.35V268A18.47,18.47,0,0,0,357.72,264.37Z" transform="translate(-243.91 -242.33)"/><path class="cls-5" d="M406.29,312.82a21.79,21.79,0,0,0-3.35-2.63v29.35h3.35v-3.13q-.44-.6-.93-1.2c.33-.4.64-.79.93-1.19Z" transform="translate(-243.91 -242.33)"/><path class="cls-5" d="M312.5,268v71.57h3.35V264.37A19.1,19.1,0,0,0,312.5,268Z" transform="translate(-243.91 -242.33)"/><path class="cls-5" d="M282.35,339.54h3.36V287a23.34,23.34,0,0,0-3.36.76Z" transform="translate(-243.91 -242.33)"/><path class="cls-5" d="M342.65,339.54H346V261.72a18.59,18.59,0,0,0-3.35,1.17Z" transform="translate(-243.91 -242.33)"/><path class="cls-5" d="M297.43,339.54h3.35V270.8a14.24,14.24,0,0,0-3.35.74Z" transform="translate(-243.91 -242.33)"/><path class="cls-5" d="M327.57,339.54h3.36V262.89a19,19,0,0,0-3.36-1.17Z" transform="translate(-243.91 -242.33)"/><path class="cls-1" d="M410.89,336.89a.51.51,0,0,1-.4-.2c-.29-.38-.6-.77-.91-1.16l-.26-.32.26-.31c.32-.39.62-.78.91-1.17a.51.51,0,0,1,.7-.1.5.5,0,0,1,.1.7c-.22.3-.45.59-.68.88l.68.88a.5.5,0,0,1-.1.7A.47.47,0,0,1,410.89,336.89Z" transform="translate(-243.91 -242.33)"/><path class="cls-1" d="M408.92,361.35a.46.46,0,0,1-.4-.2.5.5,0,0,1,.09-.7,19.78,19.78,0,0,0,2.21-1.9.49.49,0,0,1,.7.7,20.5,20.5,0,0,1-2.3,2A.49.49,0,0,1,408.92,361.35Zm4.72-5.06a.48.48,0,0,1-.26-.07.5.5,0,0,1-.17-.69,13.4,13.4,0,0,0,1.23-2.6.5.5,0,0,1,.95.33,14.54,14.54,0,0,1-1.33,2.79A.49.49,0,0,1,413.64,356.29Zm2-6.59h0a.5.5,0,0,1-.48-.52c0-.17,0-.35,0-.53a14.5,14.5,0,0,0-.2-2.34.5.5,0,0,1,.42-.57.48.48,0,0,1,.57.41,15.25,15.25,0,0,1,.21,2.5c0,.19,0,.38,0,.57A.5.5,0,0,1,415.65,349.7Zm-1.28-6.79a.48.48,0,0,1-.46-.32,24.24,24.24,0,0,0-1.27-2.63.5.5,0,1,1,.87-.48,23.59,23.59,0,0,1,1.32,2.74.49.49,0,0,1-.27.65A.46.46,0,0,1,414.37,342.91Z" transform="translate(-243.91 -242.33)"/><path class="cls-1" d="M404.65,365.63a.49.49,0,0,1-.48-.36c-.13-.47-.28-.94-.43-1.42l-.14-.41.39-.19c.45-.22.89-.45,1.32-.68a.5.5,0,0,1,.48.88c-.32.17-.64.34-1,.5.11.35.21.7.31,1.05a.5.5,0,0,1-.35.61A.3.3,0,0,1,404.65,365.63Z" transform="translate(-243.91 -242.33)"/><path class="cls-1" d="M393.85,386.66a.5.5,0,0,1-.12-1,21,21,0,0,0,2.68-.87.51.51,0,0,1,.65.27.5.5,0,0,1-.28.65,21,21,0,0,1-2.81.92Zm6.13-2.72a.48.48,0,0,1-.4-.21.51.51,0,0,1,.11-.7,12.3,12.3,0,0,0,2.09-1.83.5.5,0,0,1,.74.68,14.25,14.25,0,0,1-2.25,2A.52.52,0,0,1,400,383.94Zm4.31-5.09a.59.59,0,0,1-.22-.05.51.51,0,0,1-.24-.67,13.16,13.16,0,0,0,.91-2.63.5.5,0,0,1,.6-.37.5.5,0,0,1,.37.6,14.52,14.52,0,0,1-1,2.83A.51.51,0,0,1,404.29,378.85Zm1.35-6.56a.5.5,0,0,1-.5-.5A21.32,21.32,0,0,0,405,369a.5.5,0,1,1,1-.13,23.21,23.21,0,0,1,.2,3,.5.5,0,0,1-.5.5Z" transform="translate(-243.91 -242.33)"/><path class="cls-1" d="M388.41,389h-.06a.5.5,0,0,1-.44-.55q.07-.72.12-1.47l0-.45.44,0c.5,0,1-.07,1.47-.13a.5.5,0,0,1,.11,1l-1.08.1c0,.36-.06.72-.1,1.07A.49.49,0,0,1,388.41,389Z" transform="translate(-243.91 -242.33)"/><path class="cls-1" d="M373.39,404.57h0a21.52,21.52,0,0,1-2.94-.21.49.49,0,0,1-.43-.56.49.49,0,0,1,.56-.43,21.23,21.23,0,0,0,2.81.2.5.5,0,0,1,0,1Zm3.82-.42a.5.5,0,0,1-.11-1,13.39,13.39,0,0,0,2.63-.91.5.5,0,1,1,.42.9,13.82,13.82,0,0,1-2.82,1Zm5.92-3.09a.49.49,0,0,1-.37-.16.5.5,0,0,1,0-.71,13.18,13.18,0,0,0,1.83-2.09.5.5,0,0,1,.7-.12.51.51,0,0,1,.12.7,14.25,14.25,0,0,1-2,2.25A.5.5,0,0,1,383.13,401.06Zm3.72-5.56-.18,0a.5.5,0,0,1-.28-.65,21.71,21.71,0,0,0,.87-2.69.48.48,0,0,1,.6-.36.5.5,0,0,1,.37.6,22.71,22.71,0,0,1-.91,2.82A.51.51,0,0,1,386.85,395.5Z" transform="translate(-243.91 -242.33)"/><path class="cls-1" d="M364.58,404.47a.53.53,0,0,1-.24-.06.51.51,0,0,1-.2-.68c.24-.42.46-.86.68-1.31L365,402l.42.13c.47.16.95.3,1.41.43a.5.5,0,0,1-.27,1l-1-.31c-.17.32-.34.65-.51,1A.49.49,0,0,1,364.58,404.47Z" transform="translate(-243.91 -242.33)"/><path class="cls-1" d="M350.23,414.58a15.1,15.1,0,0,1-2.49-.2.5.5,0,0,1-.41-.57.49.49,0,0,1,.57-.42,14,14,0,0,0,2.87.18.51.51,0,0,1,.52.48.49.49,0,0,1-.47.52Zm4.46-.75a.5.5,0,0,1-.17-1,13.68,13.68,0,0,0,2.6-1.23.5.5,0,1,1,.52.85,14.18,14.18,0,0,1-2.79,1.32A.45.45,0,0,1,354.69,413.83ZM344,413.3a.63.63,0,0,1-.19,0,23.7,23.7,0,0,1-2.74-1.33.5.5,0,0,1-.2-.68.51.51,0,0,1,.68-.19,23.5,23.5,0,0,0,2.64,1.27.49.49,0,0,1,.27.65A.5.5,0,0,1,344,413.3Zm16.49-3.22a.54.54,0,0,1-.36-.14.51.51,0,0,1,0-.71A19.7,19.7,0,0,0,362,407a.49.49,0,0,1,.7-.09.5.5,0,0,1,.1.7,22.57,22.57,0,0,1-2,2.31A.52.52,0,0,1,360.49,410.08Z" transform="translate(-243.91 -242.33)"/><path class="cls-1" d="M338,409.82a.54.54,0,0,1-.3-.1c-.3-.22-.59-.45-.88-.69l-.88.69a.51.51,0,0,1-.7-.1.5.5,0,0,1,.1-.7c.38-.29.77-.6,1.16-.92l.32-.26.31.26c.39.32.78.63,1.17.92a.5.5,0,0,1-.3.9Z" transform="translate(-243.91 -242.33)"/><path class="cls-1" d="M323.36,414.58h-.58a.49.49,0,0,1-.48-.51.5.5,0,0,1,.52-.49h.54a14.35,14.35,0,0,0,2.33-.19.49.49,0,0,1,.57.41.5.5,0,0,1-.41.58A16.28,16.28,0,0,1,323.36,414.58Zm-4.46-.74a.45.45,0,0,1-.16,0,14.49,14.49,0,0,1-2.79-1.32.5.5,0,1,1,.52-.85,14,14,0,0,0,2.6,1.23.5.5,0,0,1-.17,1Zm10.69-.54a.5.5,0,0,1-.18-1,22.51,22.51,0,0,0,2.63-1.27.5.5,0,0,1,.48.88,23.59,23.59,0,0,1-2.74,1.32A.65.65,0,0,1,329.59,413.3Zm-16.49-3.21a.46.46,0,0,1-.35-.14,20.62,20.62,0,0,1-2-2.31.5.5,0,0,1,.09-.7.52.52,0,0,1,.71.1,20.59,20.59,0,0,0,1.9,2.2.5.5,0,0,1,0,.71A.46.46,0,0,1,313.1,410.09Z" transform="translate(-243.91 -242.33)"/><path class="cls-1" d="M309,404.47a.49.49,0,0,1-.44-.26c-.17-.31-.34-.64-.5-1l-1.05.31a.5.5,0,0,1-.27-1c.47-.13.94-.27,1.42-.43l.41-.13.19.39c.22.45.45.89.68,1.31a.51.51,0,0,1-.2.68A.53.53,0,0,1,309,404.47Z" transform="translate(-243.91 -242.33)"/><path class="cls-1" d="M300.21,404.57a.5.5,0,0,1-.5-.5.5.5,0,0,1,.5-.5,21.37,21.37,0,0,0,2.82-.2.5.5,0,1,1,.13,1,21.55,21.55,0,0,1-3,.21Zm-3.83-.42h-.11a14.12,14.12,0,0,1-2.83-1,.49.49,0,0,1-.24-.66.5.5,0,0,1,.67-.24,12.54,12.54,0,0,0,2.63.9.5.5,0,0,1-.12,1Zm-5.92-3.07a.55.55,0,0,1-.34-.13,14.25,14.25,0,0,1-2-2.25.5.5,0,0,1,.12-.7.49.49,0,0,1,.69.12,13.24,13.24,0,0,0,1.84,2.09.5.5,0,0,1-.34.87Zm-3.73-5.56a.5.5,0,0,1-.46-.31,21.5,21.5,0,0,1-.92-2.81.51.51,0,0,1,.37-.61.49.49,0,0,1,.6.36,21.18,21.18,0,0,0,.87,2.69.5.5,0,0,1-.27.65A.63.63,0,0,1,286.73,395.52Z" transform="translate(-243.91 -242.33)"/><path class="cls-1" d="M285.17,389a.51.51,0,0,1-.5-.45c0-.35-.07-.71-.1-1.07l-1.07-.1a.5.5,0,0,1-.45-.55.5.5,0,0,1,.55-.45c.48.06,1,.1,1.47.13l.45,0,0,.45c0,.5.07,1,.13,1.47a.51.51,0,0,1-.45.55Z" transform="translate(-243.91 -242.33)"/><path class="cls-1" d="M279.75,386.67l-.12,0a21.16,21.16,0,0,1-2.82-.91.5.5,0,0,1,.38-.92,22.15,22.15,0,0,0,2.68.86.5.5,0,0,1,.36.61A.49.49,0,0,1,279.75,386.67ZM273.61,384a.46.46,0,0,1-.29-.1,13.76,13.76,0,0,1-2.25-2,.5.5,0,0,1,.74-.67,13.7,13.7,0,0,0,2.09,1.83.49.49,0,0,1,.12.69A.5.5,0,0,1,273.61,384Zm-4.31-5.09a.52.52,0,0,1-.46-.29,14.3,14.3,0,0,1-1-2.83.5.5,0,1,1,1-.23,13.16,13.16,0,0,0,.91,2.63.5.5,0,0,1-.24.67A.54.54,0,0,1,269.3,378.87Zm-1.37-6.56h0a.5.5,0,0,1-.5-.5v0a22.9,22.9,0,0,1,.2-2.93.51.51,0,0,1,.57-.43.51.51,0,0,1,.43.57,21,21,0,0,0-.2,2.81v.09A.5.5,0,0,1,267.93,372.31Z" transform="translate(-243.91 -242.33)"/><path class="cls-1" d="M268.93,365.63a.34.34,0,0,1-.14,0,.5.5,0,0,1-.35-.61c.1-.35.2-.7.31-1.05l-1-.5a.5.5,0,1,1,.48-.88c.42.23.86.46,1.31.68l.39.19-.13.41c-.16.48-.3.95-.43,1.42A.5.5,0,0,1,268.93,365.63Z" transform="translate(-243.91 -242.33)"/><path class="cls-1" d="M264.67,361.36a.49.49,0,0,1-.3-.1,22.53,22.53,0,0,1-2.3-2,.5.5,0,0,1,0-.71.48.48,0,0,1,.7,0,20.94,20.94,0,0,0,2.21,1.91.49.49,0,0,1,.09.7A.47.47,0,0,1,264.67,361.36ZM260,356.31a.52.52,0,0,1-.43-.24,15.47,15.47,0,0,1-1.33-2.79.5.5,0,1,1,.95-.33,13.92,13.92,0,0,0,1.23,2.59.51.51,0,0,1-.42.77Zm-2-6.59a.5.5,0,0,1-.5-.48c0-.19,0-.39,0-.59a15,15,0,0,1,.2-2.48.5.5,0,0,1,.57-.42.51.51,0,0,1,.42.58,14.14,14.14,0,0,0-.19,2.32c0,.19,0,.37,0,.55a.5.5,0,0,1-.48.52Zm1.27-6.8a.63.63,0,0,1-.19,0,.51.51,0,0,1-.28-.65,25.46,25.46,0,0,1,1.32-2.75.5.5,0,0,1,.88.49,23.37,23.37,0,0,0-1.27,2.63A.48.48,0,0,1,259.2,342.92Z" transform="translate(-243.91 -242.33)"/><path class="cls-1" d="M262.68,336.89a.49.49,0,0,1-.3-.1.51.51,0,0,1-.1-.7l.69-.88c-.24-.29-.47-.58-.69-.88a.5.5,0,0,1,.8-.6c.29.39.6.78.92,1.17l.26.31-.26.32c-.32.39-.63.78-.92,1.16A.48.48,0,0,1,262.68,336.89Z" transform="translate(-243.91 -242.33)"/><path class="cls-1" d="M260.5,331.21a.52.52,0,0,1-.44-.26,24.59,24.59,0,0,1-1.32-2.75.5.5,0,0,1,.93-.37,21.77,21.77,0,0,0,1.27,2.63.51.51,0,0,1-.2.68A.42.42,0,0,1,260.5,331.21Zm-2.38-6.51a.51.51,0,0,1-.5-.42,16.53,16.53,0,0,1-.2-2.51c0-.19,0-.38,0-.57a.5.5,0,0,1,.52-.48.51.51,0,0,1,.48.52c0,.18,0,.36,0,.53a14.5,14.5,0,0,0,.19,2.35.5.5,0,0,1-.41.57Zm.54-6.87a.45.45,0,0,1-.16,0,.51.51,0,0,1-.31-.64,14.69,14.69,0,0,1,1.32-2.78.5.5,0,0,1,.69-.17.51.51,0,0,1,.17.69,13.36,13.36,0,0,0-1.24,2.59A.49.49,0,0,1,258.66,317.83Zm3.75-5.81a.5.5,0,0,1-.36-.14.51.51,0,0,1,0-.71,22.9,22.9,0,0,1,2.31-2,.51.51,0,0,1,.7.1.5.5,0,0,1-.1.7,21.86,21.86,0,0,0-2.2,1.91A.49.49,0,0,1,262.41,312Z" transform="translate(-243.91 -242.33)"/><path class="cls-1" d="M268,307.92a.51.51,0,0,1-.44-.26.5.5,0,0,1,.2-.68l1-.51c-.11-.35-.21-.7-.31-1a.5.5,0,1,1,1-.27c.13.46.27.94.43,1.41l.13.42-.39.19c-.45.22-.89.44-1.31.68A.53.53,0,0,1,268,307.92Z" transform="translate(-243.91 -242.33)"/><path class="cls-1" d="M268.13,302a.5.5,0,0,1-.49-.43,21.55,21.55,0,0,1-.21-2.95.5.5,0,0,1,.5-.5h0a.49.49,0,0,1,.5.49,21.14,21.14,0,0,0,.2,2.82.49.49,0,0,1-.43.56Zm.22-6.71h-.12a.5.5,0,0,1-.37-.6,14.3,14.3,0,0,1,1-2.83.5.5,0,0,1,.67-.24.49.49,0,0,1,.24.66,12.74,12.74,0,0,0-.9,2.63A.51.51,0,0,1,268.35,295.31Zm3.07-5.92a.5.5,0,0,1-.34-.13.51.51,0,0,1,0-.71,14.83,14.83,0,0,1,2.25-2,.52.52,0,0,1,.7.12.5.5,0,0,1-.12.7,13.24,13.24,0,0,0-2.09,1.84A.52.52,0,0,1,271.42,289.39Zm5.56-3.73a.5.5,0,0,1-.19-1,23.11,23.11,0,0,1,2.81-.91.5.5,0,1,1,.25,1,21.18,21.18,0,0,0-2.69.87A.58.58,0,0,1,277,285.66Z" transform="translate(-243.91 -242.33)"/><path class="cls-1" d="M283.55,284.09a.51.51,0,0,1-.5-.44.5.5,0,0,1,.45-.55l1.07-.1c0-.36.06-.72.1-1.08a.49.49,0,0,1,.55-.44.5.5,0,0,1,.45.55c-.06.48-.1,1-.13,1.47l0,.44-.45,0q-.75,0-1.47.12Z" transform="translate(-243.91 -242.33)"/><path class="cls-1" d="M285.83,278.68l-.12,0a.5.5,0,0,1-.36-.61,21.49,21.49,0,0,1,.91-2.81.5.5,0,0,1,.65-.28.51.51,0,0,1,.28.65,21.18,21.18,0,0,0-.87,2.69A.51.51,0,0,1,285.83,278.68Zm2.71-6.14a.47.47,0,0,1-.28-.09.5.5,0,0,1-.12-.7,13.76,13.76,0,0,1,2-2.25.5.5,0,0,1,.67.73,13.79,13.79,0,0,0-1.83,2.1A.51.51,0,0,1,288.54,272.54Zm5.09-4.32a.5.5,0,0,1-.21-1,15,15,0,0,1,2.83-1,.5.5,0,0,1,.23,1,12.56,12.56,0,0,0-2.63.91A.54.54,0,0,1,293.63,268.22Zm9.44-1.16H303a21.06,21.06,0,0,0-2.81-.19.51.51,0,0,1-.5-.5.5.5,0,0,1,.5-.5h0a23.21,23.21,0,0,1,2.95.2.5.5,0,0,1-.07,1Z" transform="translate(-243.91 -242.33)"/><path class="cls-1" d="M308.56,268.4l-.41-.14c-.48-.15-.95-.3-1.42-.43a.5.5,0,0,1,.27-1l1.05.31c.16-.33.33-.65.5-1a.5.5,0,0,1,.88.48c-.23.43-.46.87-.68,1.32Z" transform="translate(-243.91 -242.33)"/><path class="cls-1" d="M311.13,263.6a.49.49,0,0,1-.39-.8,21.63,21.63,0,0,1,2-2.31.5.5,0,0,1,.71.71,21.86,21.86,0,0,0-1.91,2.2A.48.48,0,0,1,311.13,263.6Zm21.13-4.18a.44.44,0,0,1-.24-.07,23.26,23.26,0,0,0-2.63-1.26.5.5,0,1,1,.37-.93,23.71,23.71,0,0,1,2.75,1.32.49.49,0,0,1,.19.68A.51.51,0,0,1,332.26,259.42Zm-16.07-.55a.48.48,0,0,1-.42-.24.5.5,0,0,1,.16-.69,15.07,15.07,0,0,1,2.79-1.32.5.5,0,1,1,.33.94,13.73,13.73,0,0,0-2.6,1.24A.48.48,0,0,1,316.19,258.87Zm9.56-1.83h-.08a14,14,0,0,0-2.87-.18.51.51,0,0,1-.52-.48.5.5,0,0,1,.48-.52,15.28,15.28,0,0,1,3.07.2.5.5,0,0,1,.42.57A.5.5,0,0,1,325.75,257Z" transform="translate(-243.91 -242.33)"/><path class="cls-1" d="M336.79,262.68l-.32-.26-1.16-.91a.5.5,0,1,1,.6-.8l.88.68c.29-.23.58-.46.88-.68a.5.5,0,0,1,.7.1.51.51,0,0,1-.1.7c-.39.29-.78.6-1.17.91Z" transform="translate(-243.91 -242.33)"/><path class="cls-1" d="M362.43,263.59a.51.51,0,0,1-.4-.2,22,22,0,0,0-1.91-2.21.5.5,0,0,1,0-.7.5.5,0,0,1,.71,0,23.91,23.91,0,0,1,2,2.3.52.52,0,0,1-.1.71A.57.57,0,0,1,362.43,263.59Zm-21.14-4.16a.51.51,0,0,1-.43-.26.49.49,0,0,1,.19-.68,23.71,23.71,0,0,1,2.75-1.32.5.5,0,0,1,.65.27.51.51,0,0,1-.28.65,23.37,23.37,0,0,0-2.63,1.27A.55.55,0,0,1,341.29,259.43Zm16.07-.57a.51.51,0,0,1-.26-.07,13.31,13.31,0,0,0-2.59-1.23.5.5,0,0,1,.33-.95,14.74,14.74,0,0,1,2.78,1.33.5.5,0,0,1-.26.92ZM347.8,257a.5.5,0,0,1-.08-1,16.1,16.1,0,0,1,3.08-.2.5.5,0,0,1,.48.52.51.51,0,0,1-.52.48,14.89,14.89,0,0,0-2.88.19Z" transform="translate(-243.91 -242.33)"/><path class="cls-1" d="M365,268.4l-.19-.39c-.22-.45-.44-.89-.68-1.32a.51.51,0,0,1,.2-.68.5.5,0,0,1,.68.2l.51,1,1-.31a.51.51,0,0,1,.62.34.5.5,0,0,1-.35.62c-.46.13-.94.28-1.41.43Z" transform="translate(-243.91 -242.33)"/><path class="cls-1" d="M387.73,278.65a.5.5,0,0,1-.48-.37,20.67,20.67,0,0,0-.87-2.69.5.5,0,0,1,.28-.65.5.5,0,0,1,.65.28,22.55,22.55,0,0,1,.91,2.81.5.5,0,0,1-.36.61ZM385,272.52a.52.52,0,0,1-.41-.21,12.81,12.81,0,0,0-1.84-2.09.51.51,0,0,1,0-.71.5.5,0,0,1,.71,0,14.25,14.25,0,0,1,2,2.25.51.51,0,0,1-.11.7A.52.52,0,0,1,385,272.52Zm-5.1-4.31a.41.41,0,0,1-.21,0,14,14,0,0,0-2.63-.9.5.5,0,1,1,.22-1,13.68,13.68,0,0,1,2.83,1,.5.5,0,0,1,.24.67A.48.48,0,0,1,379.92,268.21Zm-9.44-1.15a.49.49,0,0,1-.49-.43.5.5,0,0,1,.42-.57,23.21,23.21,0,0,1,2.95-.2h0a.5.5,0,0,1,0,1,21.09,21.09,0,0,0-2.82.19Z" transform="translate(-243.91 -242.33)"/><path class="cls-1" d="M390,284.09H390q-.72-.07-1.47-.12l-.44,0,0-.44q0-.75-.12-1.47a.5.5,0,0,1,1-.11c0,.36.07.72.1,1.08l1.08.1a.5.5,0,0,1,.44.55A.49.49,0,0,1,390,284.09Z" transform="translate(-243.91 -242.33)"/><path class="cls-1" d="M405.45,302h-.07a.5.5,0,0,1-.43-.56,21.06,21.06,0,0,0,.19-2.81.51.51,0,0,1,.5-.5.49.49,0,0,1,.5.49h0a21.26,21.26,0,0,1-.2,2.94A.5.5,0,0,1,405.45,302Zm-.23-6.71a.51.51,0,0,1-.49-.39,13.36,13.36,0,0,0-.9-2.63.49.49,0,0,1,.23-.66.5.5,0,0,1,.67.24,13.82,13.82,0,0,1,1,2.82.5.5,0,0,1-.37.6Zm-3.08-5.92a.49.49,0,0,1-.37-.16,13.26,13.26,0,0,0-2.1-1.83.51.51,0,0,1-.11-.7.5.5,0,0,1,.69-.12,14.25,14.25,0,0,1,2.25,2,.5.5,0,0,1,0,.71A.46.46,0,0,1,402.14,289.37Zm-5.56-3.72a.58.58,0,0,1-.19,0,20.67,20.67,0,0,0-2.69-.87.5.5,0,0,1-.36-.6.51.51,0,0,1,.61-.37,23.11,23.11,0,0,1,2.81.91.5.5,0,0,1-.18,1Z" transform="translate(-243.91 -242.33)"/><path class="cls-1" d="M405.55,307.92a.48.48,0,0,1-.24-.06c-.43-.24-.87-.46-1.32-.68l-.39-.19.14-.42c.15-.47.3-.95.43-1.41a.5.5,0,0,1,.61-.35.51.51,0,0,1,.35.62c-.1.34-.2.69-.31,1l1,.51a.5.5,0,0,1,.21.68A.53.53,0,0,1,405.55,307.92Z" transform="translate(-243.91 -242.33)"/><path class="cls-1" d="M413.08,331.19a.53.53,0,0,1-.24-.06.5.5,0,0,1-.19-.68,23.26,23.26,0,0,0,1.26-2.63.49.49,0,0,1,.65-.28.5.5,0,0,1,.28.65,22.84,22.84,0,0,1-1.32,2.74A.49.49,0,0,1,413.08,331.19Zm2.38-6.51h-.08a.49.49,0,0,1-.41-.57,15.46,15.46,0,0,0,.19-2.33c0-.18,0-.36,0-.54a.5.5,0,0,1,.48-.52.51.51,0,0,1,.52.48c0,.19,0,.38,0,.58a15.13,15.13,0,0,1-.21,2.49A.49.49,0,0,1,415.46,324.68Zm-.55-6.87a.5.5,0,0,1-.47-.33,13.44,13.44,0,0,0-1.24-2.6.51.51,0,0,1,.17-.69.49.49,0,0,1,.68.17,14,14,0,0,1,1.33,2.79.5.5,0,0,1-.31.63A.45.45,0,0,1,414.91,317.81Zm-3.75-5.8a.54.54,0,0,1-.36-.14,19.58,19.58,0,0,0-2.2-1.91.5.5,0,0,1,.6-.8,20.62,20.62,0,0,1,2.31,2,.51.51,0,0,1,0,.71A.54.54,0,0,1,411.16,312Z" transform="translate(-243.91 -242.33)"/><text class="cls-6" transform="translate(39.5 143.14)">Pasteleria</text><text class="cls-7" transform="translate(56.98 156.63)">Pan <tspan class="cls-8" x="22.13" y="0">F</tspan><tspan x="28.01" y="0">r</tspan><tspan class="cls-9" x="34.01" y="0">e</tspan><tspan class="cls-8" x="39.64" y="0">s</tspan><tspan x="45.52" y="0">qu</tspan><tspan class="cls-8" x="57.52" y="0">it</tspan><tspan x="65.63" y="0">o</tspan></text><path class="cls-10" d="M353.84,354.11h-34.1a11.71,11.71,0,0,1-11-7.57L297.52,316.8h78.53l-11.26,29.74A11.7,11.7,0,0,1,353.84,354.11Z" transform="translate(-243.91 -242.33)"/><path class="cls-11" d="M365.84,312.46,356.19,347a1,1,0,0,0,.72,1.28,1,1,0,0,0,1.28-.72L367.84,313a1,1,0,1,0-2-.56" transform="translate(-243.91 -242.33)"/><path class="cls-11" d="M350.78,312.6,346,347.1a1,1,0,1,0,2.05.29l4.83-34.5a1,1,0,1,0-2.06-.29" transform="translate(-243.91 -242.33)"/><path class="cls-11" d="M335.74,312.74v34.51a1,1,0,0,0,2.08,0V312.74a1,1,0,0,0-2.08,0" transform="translate(-243.91 -242.33)"/><path class="cls-11" d="M320.73,312.89l4.82,34.5a1,1,0,1,0,2.06-.29l-4.82-34.5a1,1,0,1,0-2.06.29" transform="translate(-243.91 -242.33)"/><path class="cls-11" d="M305.73,313l9.65,34.51a1,1,0,1,0,2-.56l-9.65-34.51a1,1,0,1,0-2,.56" transform="translate(-243.91 -242.33)"/><path class="cls-11" d="M366.78,316.8l1.06-3.78a1,1,0,1,0-2-.56l-1.22,4.34H352.29l.55-3.91a1,1,0,1,0-2.06-.29l-.59,4.2H337.82v-4.06a1,1,0,1,0-2.07,0v4.06H323.37l-.58-4.2a1,1,0,1,0-2.06.29l.55,3.91H308.94l-1.21-4.34a1,1,0,1,0-2,.56l1.06,3.78h-9.27l3.18,8.4.46.16c5.6,1.58,10.3-2.86,10.57-3.12a5.88,5.88,0,0,0,2.59,2.25c2.87,1.22,6.82-.19,9.7-3.64a10.48,10.48,0,0,0,3.46,3.64c4.36,2.72,10.73,1.82,16.28-2.08a35.08,35.08,0,0,0,26.84.69,12.2,12.2,0,0,0,3.37-.8l2.08-5.5Z" transform="translate(-243.91 -242.33)"/><path class="cls-12" d="M296.4,318.36a12.7,12.7,0,0,1-4.24-7.12c-1.09-6.2,3.47-13.36,11.6-17a17.73,17.73,0,0,1,3.64-9.52,17.19,17.19,0,0,1,8.74-5.77,8.58,8.58,0,0,0,6.19-7.86,4.34,4.34,0,0,1,.13-.92c1.1-4.24,8-4.45,14.72-11.94a32.11,32.11,0,0,0,2.6-3.29,30.94,30.94,0,0,1,5.88,8c2.1,4.09,1.51,5.26,3.47,8,3,4.08,5.87,3.56,9,7.27a16.55,16.55,0,0,1,3.64,9.18,10.86,10.86,0,0,1,8.83-.7c4.13,1.67,6.8,6.22,6.41,11.26a11.92,11.92,0,0,1-6.41,21.3,35.21,35.21,0,0,1-26.84-.69c-5.55,3.9-11.92,4.79-16.28,2.07A10.34,10.34,0,0,1,324,317c-2.88,3.45-6.83,4.86-9.7,3.63a5.81,5.81,0,0,1-2.59-2.25c-.27.26-5,4.71-10.57,3.12A10,10,0,0,1,296.4,318.36Z" transform="translate(-243.91 -242.33)"/><path class="cls-13" d="M293.23,304.09a14.26,14.26,0,0,0,2.09.2,7.78,7.78,0,0,0,6.33-3.57,19.74,19.74,0,0,0,1.41-3.56,5.79,5.79,0,0,1,.77-1.4,5.56,5.56,0,0,1,1.48-1.29,5,5,0,0,1,2.78-.83,11.55,11.55,0,0,1,1.77.18,14.19,14.19,0,0,0,2.08.21,7.21,7.21,0,0,0,3.87-1.15,7.3,7.3,0,0,0,2.46-2.42,19.74,19.74,0,0,0,1.41-3.56,5.31,5.31,0,0,1,.77-1.4,5.56,5.56,0,0,1,1.48-1.29,5,5,0,0,1,2.78-.83,10.21,10.21,0,0,1,1.76.18,14.4,14.4,0,0,0,2.09.2,7.05,7.05,0,0,0,3.86-1.14,7.24,7.24,0,0,0,2.47-2.42,20.34,20.34,0,0,0,1.41-3.56,5,5,0,0,1,2.25-2.69,5,5,0,0,1,2.78-.84,13,13,0,0,1,1.77.18,12.82,12.82,0,0,0,2.08.21,7.21,7.21,0,0,0,3.87-1.15c.29-.18.55-.36.8-.55-.24-.28-.48-.57-.72-.9s-.37-.53-.52-.78a7.54,7.54,0,0,1-.66.46,5,5,0,0,1-2.77.84,11.42,11.42,0,0,1-1.77-.18,12.94,12.94,0,0,0-2.08-.21,7.16,7.16,0,0,0-3.87,1.15A7.24,7.24,0,0,0,335,274.6a20.52,20.52,0,0,0-1.41,3.56,5.47,5.47,0,0,1-.77,1.4,5.4,5.4,0,0,1-1.48,1.29,5,5,0,0,1-2.77.83,10.32,10.32,0,0,1-1.77-.18,14.26,14.26,0,0,0-2.08-.2,7.06,7.06,0,0,0-3.87,1.14,7.33,7.33,0,0,0-2.47,2.42,21.16,21.16,0,0,0-1.41,3.56,5.31,5.31,0,0,1-.77,1.4,5.24,5.24,0,0,1-1.48,1.29,5,5,0,0,1-2.77.84,12.8,12.8,0,0,1-1.77-.18,12.94,12.94,0,0,0-2.08-.21,7.1,7.1,0,0,0-3.87,1.15l-.29.2c-.08.5-.14,1-.17,1.36a23.46,23.46,0,0,0-2.12,1.09,23,23,0,0,0-1.3,3.33,5.47,5.47,0,0,1-.77,1.4,5.4,5.4,0,0,1-1.48,1.29,5,5,0,0,1-2.77.83,7.26,7.26,0,0,1-1-.08,15.66,15.66,0,0,0-1.08,1.95Z" transform="translate(-243.91 -242.33)"/><path class="cls-13" d="M295.72,313.26A5.39,5.39,0,0,1,297.2,312a5,5,0,0,1,2.78-.84,12.8,12.8,0,0,1,1.77.18,12.94,12.94,0,0,0,2.08.21,7.21,7.21,0,0,0,3.87-1.15,7.33,7.33,0,0,0,2.47-2.42,20.52,20.52,0,0,0,1.41-3.56,5.47,5.47,0,0,1,.77-1.4,5.4,5.4,0,0,1,1.48-1.29,5.06,5.06,0,0,1,2.77-.84,11.49,11.49,0,0,1,1.77.19,14.26,14.26,0,0,0,2.08.2,7.06,7.06,0,0,0,3.87-1.14,7.26,7.26,0,0,0,2.47-2.43,20.77,20.77,0,0,0,1.41-3.55,5.53,5.53,0,0,1,.77-1.41,5.39,5.39,0,0,1,1.48-1.28,5,5,0,0,1,2.77-.84,12.8,12.8,0,0,1,1.77.18,12.94,12.94,0,0,0,2.08.21,7.78,7.78,0,0,0,6.34-3.57,20.52,20.52,0,0,0,1.41-3.56,5.47,5.47,0,0,1,.77-1.4,5.4,5.4,0,0,1,1.48-1.29,4.94,4.94,0,0,1,2.77-.83,11.42,11.42,0,0,1,1.77.18,14.26,14.26,0,0,0,2.08.2,7.06,7.06,0,0,0,3.87-1.14,8.35,8.35,0,0,0,1.06-.79c-.16-.22-.33-.43-.49-.62a11.36,11.36,0,0,0-.88-.93,5.85,5.85,0,0,1-.78.57,5.07,5.07,0,0,1-2.78.84,13,13,0,0,1-1.77-.18,12.82,12.82,0,0,0-2.08-.21,7.74,7.74,0,0,0-6.33,3.57,20.64,20.64,0,0,0-1.42,3.56,6,6,0,0,1-.76,1.4,5.71,5.71,0,0,1-1.48,1.28,5,5,0,0,1-2.78.84,11.55,11.55,0,0,1-1.77-.18,12.94,12.94,0,0,0-2.08-.21,7.21,7.21,0,0,0-3.87,1.15,7.3,7.3,0,0,0-2.46,2.42,19.74,19.74,0,0,0-1.41,3.56,5.47,5.47,0,0,1-.77,1.4,5.56,5.56,0,0,1-1.48,1.29,5,5,0,0,1-2.78.83,11.3,11.3,0,0,1-1.76-.18,14.4,14.4,0,0,0-2.09-.2,7.05,7.05,0,0,0-3.86,1.14,7.24,7.24,0,0,0-2.47,2.42,20.34,20.34,0,0,0-1.41,3.56,5,5,0,0,1-2.25,2.69,5,5,0,0,1-2.78.84,11.42,11.42,0,0,1-1.77-.18,12.94,12.94,0,0,0-2.08-.21,7.19,7.19,0,0,0-3.87,1.15,7.33,7.33,0,0,0-2.47,2.42,10.12,10.12,0,0,0-.62,1.3,12.44,12.44,0,0,0,1.4,2.31c.19-.57.34-1.1.53-1.57A5.31,5.31,0,0,1,295.72,313.26Z" transform="translate(-243.91 -242.33)"/><path class="cls-13" d="M380,308.31a7.43,7.43,0,0,0-2.47,2.42,22.05,22.05,0,0,0-1.41,3.56,5,5,0,0,1-2.24,2.69,5.09,5.09,0,0,1-2.78.84,13,13,0,0,1-1.77-.18,12.94,12.94,0,0,0-2.08-.21A7.74,7.74,0,0,0,361,321a4.23,4.23,0,0,0-.22.42c1-.08,1.92-.2,2.81-.34a5.32,5.32,0,0,1,1-.73,5,5,0,0,1,2.77-.84,11.42,11.42,0,0,1,1.77.18l.13,0c.52-.17,1-.34,1.42-.5a12.38,12.38,0,0,0,6.88-2.91,21,21,0,0,0,1.4-3.53,5.31,5.31,0,0,1,.77-1.4,5.5,5.5,0,0,1,1.47-1.29l.17-.08a11.65,11.65,0,0,0,.28-2.41A7.83,7.83,0,0,0,380,308.31Z" transform="translate(-243.91 -242.33)"/><path class="cls-13" d="M321.58,274.2a8.48,8.48,0,0,1-1.54,2.34,7.19,7.19,0,0,0,3.87-1.15,7.33,7.33,0,0,0,2.47-2.42,20.52,20.52,0,0,0,1.41-3.56,5.31,5.31,0,0,1,.77-1.4,5.4,5.4,0,0,1,1.48-1.29,5,5,0,0,1,2.77-.84,11.49,11.49,0,0,1,1.77.19,14.26,14.26,0,0,0,2.08.2A7.78,7.78,0,0,0,343,262.7a11.56,11.56,0,0,0,1.05-2.53c-.48-.74-1-1.43-1.46-2.05-.4.93-.6,1.8-.9,2.55a5.47,5.47,0,0,1-.77,1.4,5.56,5.56,0,0,1-1.48,1.29,5,5,0,0,1-2.78.83,11.55,11.55,0,0,1-1.77-.18,14.12,14.12,0,0,0-2.08-.2,7.1,7.1,0,0,0-3.87,1.14,7.3,7.3,0,0,0-2.46,2.42,20.34,20.34,0,0,0-1.41,3.56,5.85,5.85,0,0,1-.77,1.41,5.54,5.54,0,0,1-1.48,1.28A6.11,6.11,0,0,1,321.58,274.2Z" transform="translate(-243.91 -242.33)"/><path class="cls-13" d="M352,305.24a14.26,14.26,0,0,0,2.08.2A7.08,7.08,0,0,0,358,304.3a7.33,7.33,0,0,0,2.47-2.42,21.16,21.16,0,0,0,1.41-3.56,5.53,5.53,0,0,1,.77-1.41,5.39,5.39,0,0,1,1.48-1.28,5,5,0,0,1,2.77-.84,12.8,12.8,0,0,1,1.77.18,12.94,12.94,0,0,0,2.08.21,7.19,7.19,0,0,0,3.87-1.15,7.65,7.65,0,0,0,1.68-1.38,11.36,11.36,0,0,0-1-2.06c-.08.13-.16.26-.25.39a5.54,5.54,0,0,1-1.48,1.28,5,5,0,0,1-2.78.84,11.55,11.55,0,0,1-1.77-.18,12.82,12.82,0,0,0-2.08-.21,7.21,7.21,0,0,0-3.87,1.15,7.3,7.3,0,0,0-2.46,2.42,20.64,20.64,0,0,0-1.42,3.56,5.14,5.14,0,0,1-2.24,2.69,5,5,0,0,1-2.78.83,10.42,10.42,0,0,1-1.77-.18,14.26,14.26,0,0,0-2.08-.2,7.1,7.1,0,0,0-3.87,1.14,7.3,7.3,0,0,0-2.46,2.42,20.34,20.34,0,0,0-1.41,3.56,5.61,5.61,0,0,1-.77,1.4,5.39,5.39,0,0,1-1.48,1.29,5.07,5.07,0,0,1-2.78.84,13,13,0,0,1-1.77-.18,12.82,12.82,0,0,0-2.08-.21,7.78,7.78,0,0,0-6.33,3.57,12.38,12.38,0,0,0-1.14,2.78,9.37,9.37,0,0,0,1.32,1c.14.09.29.17.44.25.26-.72.45-1.4.69-2a5.47,5.47,0,0,1,.77-1.4,5.4,5.4,0,0,1,1.48-1.29,4.94,4.94,0,0,1,2.77-.83,11.42,11.42,0,0,1,1.77.18,14.19,14.19,0,0,0,2.08.21,7.16,7.16,0,0,0,3.87-1.15,7.33,7.33,0,0,0,2.47-2.42,20.52,20.52,0,0,0,1.41-3.56,5.31,5.31,0,0,1,.77-1.4,5.4,5.4,0,0,1,1.48-1.29,4.94,4.94,0,0,1,2.77-.83A10.32,10.32,0,0,1,352,305.24Z" transform="translate(-243.91 -242.33)"/><path class="cls-13" d="M366.48,311.52A7.07,7.07,0,0,0,369,309.1a19.74,19.74,0,0,0,1.41-3.56,5.47,5.47,0,0,1,.77-1.4,5.57,5.57,0,0,1,1.48-1.29,5,5,0,0,1,2.78-.83,11.3,11.3,0,0,1,1.76.18,13.12,13.12,0,0,0,2.09.2,6.17,6.17,0,0,0,1.18-.11,12.17,12.17,0,0,0-1.16-2h0a12.8,12.8,0,0,1-1.77-.18,12.94,12.94,0,0,0-2.08-.21,7.78,7.78,0,0,0-6.34,3.57,19.74,19.74,0,0,0-1.41,3.56,5.64,5.64,0,0,1-.77,1.4,5.39,5.39,0,0,1-1.48,1.28,5,5,0,0,1-2.77.84,11.42,11.42,0,0,1-1.77-.18,13,13,0,0,0-2.09-.21,7.16,7.16,0,0,0-3.86,1.15,7.24,7.24,0,0,0-2.47,2.42,20.52,20.52,0,0,0-1.41,3.56,5.47,5.47,0,0,1-.77,1.4,5.4,5.4,0,0,1-1.48,1.29l-.34.18c.84.23,1.73.45,2.68.64a6.57,6.57,0,0,0,1.22-1.48,20,20,0,0,0,1.41-3.55,5,5,0,0,1,2.25-2.69,5.06,5.06,0,0,1,2.77-.84,12.65,12.65,0,0,1,1.77.18,13.07,13.07,0,0,0,2.09.21A7.07,7.07,0,0,0,366.48,311.52Z" transform="translate(-243.91 -242.33)"/><path class="cls-13" d="M303.51,321.79a5.28,5.28,0,0,1,.73-1.31,5.39,5.39,0,0,1,1.48-1.28,4.9,4.9,0,0,1,2.77-.84,11.42,11.42,0,0,1,1.77.18l1.09.14.38-.34c.09.14.18.26.27.38l.35,0a7.05,7.05,0,0,0,3.86-1.14,7.24,7.24,0,0,0,2.47-2.42,20.34,20.34,0,0,0,1.41-3.56,5.85,5.85,0,0,1,.77-1.41,5.54,5.54,0,0,1,1.48-1.28,5,5,0,0,1,2.78-.84,13,13,0,0,1,1.77.18,12.82,12.82,0,0,0,2.08.21,7.12,7.12,0,0,0,3.87-1.15,7.21,7.21,0,0,0,2.46-2.42,19.74,19.74,0,0,0,1.41-3.56,5.47,5.47,0,0,1,.77-1.4,5.54,5.54,0,0,1,1.48-1.28,5,5,0,0,1,2.77-.84,11.3,11.3,0,0,1,1.77.18,14.34,14.34,0,0,0,2.09.21,7.16,7.16,0,0,0,3.86-1.15,7.24,7.24,0,0,0,2.47-2.42,19.74,19.74,0,0,0,1.41-3.56,5.31,5.31,0,0,1,.77-1.4,5.56,5.56,0,0,1,1.48-1.29,5.07,5.07,0,0,1,2.78-.84,11.62,11.62,0,0,1,1.77.19,14.12,14.12,0,0,0,2.08.2,7.12,7.12,0,0,0,3.87-1.15,7.76,7.76,0,0,0,1.08-.8,11.65,11.65,0,0,0-5.39,1.35c-.06-.53-.14-1-.23-1.52-.35,0-.72-.08-1.1-.14a14.26,14.26,0,0,0-2.08-.2,7.06,7.06,0,0,0-3.87,1.14,7.24,7.24,0,0,0-2.47,2.42,21.16,21.16,0,0,0-1.41,3.56,5.53,5.53,0,0,1-.77,1.41,5.39,5.39,0,0,1-1.48,1.28,5.06,5.06,0,0,1-2.77.84,12.8,12.8,0,0,1-1.77-.18,13,13,0,0,0-2.09-.21,7.78,7.78,0,0,0-6.33,3.57,20.52,20.52,0,0,0-1.41,3.56,5.64,5.64,0,0,1-.77,1.4,5.39,5.39,0,0,1-1.48,1.28,5,5,0,0,1-2.77.84,11.42,11.42,0,0,1-1.77-.18,12.94,12.94,0,0,0-2.08-.21,7.19,7.19,0,0,0-3.87,1.15,7.33,7.33,0,0,0-2.47,2.42,20.52,20.52,0,0,0-1.41,3.56,5.31,5.31,0,0,1-.77,1.4,5.4,5.4,0,0,1-1.48,1.29,5.06,5.06,0,0,1-2.77.84,11.36,11.36,0,0,1-1.77-.19,14.26,14.26,0,0,0-2.09-.2,7.12,7.12,0,0,0-3.87,1.15,7.21,7.21,0,0,0-2.46,2.42,8.63,8.63,0,0,0-.76,1.66A8.75,8.75,0,0,0,303.51,321.79Z" transform="translate(-243.91 -242.33)"/><path class="cls-13" d="M307.4,284.75a13,13,0,0,0-1,1.36c.28-.14.56-.28.85-.46a7.16,7.16,0,0,0,2.47-2.42,9.57,9.57,0,0,0,.67-1.43A15.88,15.88,0,0,0,307.4,284.75Z" transform="translate(-243.91 -242.33)"/><path class="cls-1" d="M360.72,273.13a7.54,7.54,0,1,1-9.73-4.35A7.55,7.55,0,0,1,360.72,273.13Z" transform="translate(-243.91 -242.33)"/><path class="cls-14" d="M358.49,271.58a2,2,0,1,1-2.59-1.16A2,2,0,0,1,358.49,271.58Z" transform="translate(-243.91 -242.33)"/><path class="cls-15" d="M351.86,271.68a.63.63,0,0,1-.52-.28c-.11-.18-2.84-4.44.68-11.42a.61.61,0,0,1,.82-.28.62.62,0,0,1,.28.83c-3.18,6.3-.85,10-.75,10.19a.6.6,0,0,1-.18.85A.59.59,0,0,1,351.86,271.68Z" transform="translate(-243.91 -242.33)"/></svg>